<?xml version="1.0" standalone="no"?><!DOCTYPE svg PUBLIC "-//W3C//DTD SVG 1.1//EN" "http://www.w3.org/Graphics/SVG/1.1/DTD/svg11.dtd"><svg class="icon" width="64px" height="64.00px" viewBox="0 0 1024 1024" version="1.1" xmlns="http://www.w3.org/2000/svg"><path fill="#5697c6" d="M522.666667 128C693.504 128 832 266.496 832 437.333333c0 105.386667-52.693333 198.442667-133.162667 254.293334a106.645333 106.645333 0 0 1 63.722667 92.693333l0.106667 5.013333v12.437334a106.666667 106.666667 0 0 1-102.037334 106.581333l-4.629333 0.085333h-266.666667a106.666667 106.666667 0 0 1-106.56-102.037333l-0.106666-4.629333V789.333333a106.688 106.688 0 0 1 63.850666-97.706666A308.906667 308.906667 0 0 1 213.333333 437.333333C213.333333 266.496 351.829333 128 522.666667 128z m133.333333 618.666667h-266.666667a42.666667 42.666667 0 0 0-42.56 39.466666l-0.106666 3.2v12.437334a42.666667 42.666667 0 0 0 39.466666 42.56l3.2 0.106666h266.666667a42.666667 42.666667 0 0 0 42.56-39.466666l0.106667-3.2V789.333333a42.666667 42.666667 0 0 0-39.466667-42.56L656 746.666667zM522.666667 192C387.178667 192 277.333333 301.845333 277.333333 437.333333S387.178667 682.666667 522.666667 682.666667 768 572.821333 768 437.333333 658.154667 192 522.666667 192z m-130.005334 178.666667a32 32 0 0 1 31.850667 28.928l0.149333 3.072v69.333333a32 32 0 0 1-63.850666 3.072l-0.149334-3.072v-69.333333a32 32 0 0 1 32-32z m121.344 0a32 32 0 0 1 31.850667 28.928l0.149333 3.072v69.333333a32 32 0 0 1-63.850666 3.072l-0.149334-3.072v-69.333333a32 32 0 0 1 32-32z" /></svg>